<svg xmlns="http://www.w3.org/2000/svg" viewBox="0 0 153.16 170.08"><defs><style>.cls-1{fill:#d9e1e4;}.cls-2{fill:#b4bec1;}.cls-3{opacity:0.35;}.cls-4{fill:#fff;}.cls-5{fill:#000201;}.cls-6{fill:#67f4aa;}.cls-7,.cls-8{fill:#02c65b;}.cls-8{opacity:0.3;}</style></defs><title>Asset 13</title><g id="Layer_2" data-name="Layer 2"><g id="Layer_1-2" data-name="Layer 1"><path class="cls-1" d="M131.36,94.25c12.77-9.86,20.71-23.63,20.71-38.87,0-30-30.7-54.29-68.58-54.29S14.9,25.4,14.9,55.38s30.71,54.3,68.59,54.3a86.24,86.24,0,0,0,14.88-1.3c15.18,25.36,41,22.14,41,22.14S126.25,116.87,131.36,94.25Z"/><path class="cls-2" d="M122,101.86c0,7-3,19.08-13.86,19.08-.71-.69-1.39-1.43-2-2.2a36.51,36.51,0,0,0,1.41-10c0-24.82-25.41-44.92-56.74-44.92-11.65,0-22.68,5.67-31.69,10.46-.31-1-.38-4.84-.62-5.83C28.62,61,42.69,53.92,57.62,53.92,89,53.92,122,77,122,101.86Z"/><g class="cls-3"><path class="cls-4" d="M105.23,3.5A23.05,23.05,0,0,1,88.38,12c-5,.18-9.92-1.28-14.9-1.57C62.35,9.72,51.49,15,43.4,22.66S29.64,40.15,24.77,50.16c-1.43,2.89-3.16,6.12-6.29,6.91a5.66,5.66,0,0,1-3.54-.24c0-.6,0-1.2,0-1.79C14.9,25,45.59.74,83.48.73A85.88,85.88,0,0,1,105.23,3.5Z"/></g><path class="cls-2" d="M110,104.92s12.62,20.64,27.58,23.37v2.27s-38.87-2.39-29.73-20.69"/><path class="cls-4" d="M24.34,31.66a2,2,0,0,1-1.08-.33,1.89,1.89,0,0,1-.48-2.64c.73-1.07,18.5-26.31,57-28.19a1.93,1.93,0,0,1,2,1.8,1.9,1.9,0,0,1-1.81,2C43.41,6.07,26.07,30.59,25.9,30.84A1.89,1.89,0,0,1,24.34,31.66Z"/><path class="cls-5" d="M19.18,37.56a1.08,1.08,0,0,1-1-1.55C28.3,14.47,54.54,0,83.49,0a84.69,84.69,0,0,1,27.37,4.44,1.08,1.08,0,0,1,.68,1.37,1.09,1.09,0,0,1-1.38.68A82.91,82.91,0,0,0,83.49,2.17c-28.12,0-53.57,14-63.33,34.77A1.1,1.1,0,0,1,19.18,37.56Z"/><path class="cls-5" d="M128.43,15.46a1.06,1.06,0,0,1-.61-.2,70.45,70.45,0,0,0-9.26-5.34,1.09,1.09,0,1,1,.94-2,72,72,0,0,1,9.55,5.51,1.09,1.09,0,0,1-.62,2Z"/><path class="cls-5" d="M136.74,131.72a45.3,45.3,0,0,1-38.92-22.15,87.42,87.42,0,0,1-14.33,1.19c-38.42,0-69.67-24.84-69.67-55.38a44.62,44.62,0,0,1,.88-8.84A1.1,1.1,0,0,1,16,45.69,1.08,1.08,0,0,1,16.83,47,42.53,42.53,0,0,0,16,55.38c0,29.34,30.28,53.21,67.5,53.21a85.4,85.4,0,0,0,14.69-1.28,1.09,1.09,0,0,1,1.12.51c12.17,20.33,31.5,21.81,37.85,21.74-3.36-4.41-11.05-17-6.86-35.55a1.09,1.09,0,0,1,.4-.62c13.09-10.11,20.29-23.6,20.29-38,0-12.62-5.71-24.86-16.08-34.46a1.09,1.09,0,0,1,1.48-1.6c10.82,10,16.78,22.83,16.78,36.06,0,15-7.39,29-20.83,39.49-4.69,21.57,7.7,34.77,7.83,34.9a1.08,1.08,0,0,1-.65,1.83A25,25,0,0,1,136.74,131.72Z"/><path class="cls-5" d="M128.43,36H43.84a1.14,1.14,0,0,1,0-2.27h84.59a1.14,1.14,0,0,1,0,2.27Z"/><path class="cls-5" d="M95.16,50.45H43.84a1.13,1.13,0,0,1,0-2.26H95.16a1.13,1.13,0,1,1,0,2.26Z"/><path class="cls-5" d="M71.4,64.94H43.84a1.14,1.14,0,0,1,0-2.27H71.4a1.14,1.14,0,0,1,0,2.27Z"/><circle class="cls-4" cx="32.48" cy="27.72" r="3.91"/><circle class="cls-4" cx="38.95" cy="22.83" r="0.82"/><circle class="cls-4" cx="42.64" cy="17.18" r="1.69"/><path class="cls-6" d="M57.62,62.3C26.28,62.3.87,82.41.87,107.22c0,10.64,4.69,20.41,12.49,28.1,3.52,21-8.55,33.56-8.55,33.56a43.58,43.58,0,0,0,38.41-18.2,71.17,71.17,0,0,0,14.4,1.46c31.34,0,56.74-20.11,56.74-44.92S89,62.3,57.62,62.3Z"/><path class="cls-7" d="M113,114c-4.14,21.58-27.68,38.14-56.12,38.14a71,71,0,0,1-14.38-1.46A43.61,43.61,0,0,1,4.12,168.88s12.08-12.57,8.56-33.55A42.32,42.32,0,0,1,2.19,119.06c12.25,10.2,31.35,16.75,52.81,16.75C79.83,135.81,101.49,127,113,114Z"/><path class="cls-8" d="M114.5,107.64c0,24.82-25.42,44.93-56.74,44.93h-.48c28.35-.09,51.78-16.6,55.9-38.13-11.55,13-33.22,21.79-58,21.79-20.92,0-39.61-6.21-51.86-16a36,36,0,0,1,.13-25.57,53.9,53.9,0,0,0,27,21.47c15.09,5.33,36.51,10.94,50.31,2.8,5.72-3.39-.69-12.94,12.57-18.53,6-2.55,11.86-5.51,18.18-7.35A36.23,36.23,0,0,1,114.5,107.64Z"/><path class="cls-5" d="M7.48,170.08c-1.73,0-2.76-.12-2.81-.12A1.09,1.09,0,0,1,4,168.13c.12-.12,11.52-12.32,8.33-32.28-7-7-11.21-15.3-12.29-24.13a1.09,1.09,0,0,1,2.16-.26c1,8.44,5.15,16.43,11.91,23.09a1,1,0,0,1,.3.59c2.86,17.06-4.21,28.59-7.4,32.77A43.05,43.05,0,0,0,42.34,150a1.06,1.06,0,0,1,1.1-.42,70.4,70.4,0,0,0,14.18,1.44c30.69,0,55.65-19.67,55.65-43.84s-25-43.83-55.65-43.83c-14.1,0-27.55,4.16-37.88,11.72a1.08,1.08,0,1,1-1.28-1.75c10.7-7.83,24.6-12.15,39.16-12.15,31.88,0,57.83,20.64,57.83,46s-25.95,46-57.83,46a71.92,71.92,0,0,1-13.94-1.35A45.1,45.1,0,0,1,7.48,170.08Z"/><path class="cls-5" d="M1.09,104.4H1a1.09,1.09,0,0,1-1-1.2,37.69,37.69,0,0,1,1.77-8,1.09,1.09,0,0,1,2.06.69,34.75,34.75,0,0,0-1.67,7.54A1.09,1.09,0,0,1,1.09,104.4Z"/><path class="cls-5" d="M6,89.66a1,1,0,0,1-.54-.14A1.09,1.09,0,0,1,5,88a45.94,45.94,0,0,1,8.27-10.39,1.09,1.09,0,1,1,1.5,1.58,43.94,43.94,0,0,0-7.89,9.9A1.08,1.08,0,0,1,6,89.66Z"/><path class="cls-4" d="M16.54,88.78a1.3,1.3,0,0,1-.87-.32,1.33,1.33,0,0,1-.14-1.87A54.17,54.17,0,0,1,27.42,76.48a1.32,1.32,0,1,1,1.41,2.24,51.08,51.08,0,0,0-11.28,9.6A1.33,1.33,0,0,1,16.54,88.78Z"/><path class="cls-4" d="M11.39,95.82a1.27,1.27,0,0,1-.62-.16,1.32,1.32,0,0,1-.56-1.79,25.36,25.36,0,0,1,2.19-3.35,1.33,1.33,0,1,1,2.09,1.65,21.44,21.44,0,0,0-1.93,2.94A1.33,1.33,0,0,1,11.39,95.82Z"/><path class="cls-4" d="M67.57,13.47a1.33,1.33,0,0,1-.25-2.64,54.61,54.61,0,0,1,15.6-.57,1.33,1.33,0,1,1-.28,2.64,52.12,52.12,0,0,0-14.81.54A1.09,1.09,0,0,1,67.57,13.47Z"/><path class="cls-4" d="M59.18,15.8a1.33,1.33,0,0,1-.54-2.55A25.17,25.17,0,0,1,62.43,12a1.33,1.33,0,0,1,.62,2.58,23.88,23.88,0,0,0-3.34,1.12A1.24,1.24,0,0,1,59.18,15.8Z"/><path class="cls-5" d="M91.37,122.82a.46.46,0,0,1-.23,0,.62.62,0,0,1-.35-.8v0l3.39-8a.62.62,0,0,1,1.14.48l-3.39,8A.61.61,0,0,1,91.37,122.82Z"/><path class="cls-5" d="M95.88,119a.6.6,0,0,1-.24,0,.61.61,0,0,1-.34-.8v0l1.8-4.28a.62.62,0,0,1,1.15.48l-1.81,4.28A.61.61,0,0,1,95.88,119Z"/><circle class="cls-7" cx="73.91" cy="133.15" r="5.08"/><circle class="cls-7" cx="68.57" cy="124.88" r="2.41"/><ellipse class="cls-7" cx="75.23" cy="125.27" rx="1.07" ry="1.53" transform="translate(-70.58 115.66) rotate(-55.24)"/><circle class="cls-2" cx="122.18" cy="88.25" r="5.08"/><circle class="cls-2" cx="116.84" cy="79.98" r="2.41"/><ellipse class="cls-2" cx="123.51" cy="80.37" rx="1.07" ry="1.53" transform="matrix(0.57, -0.82, 0.82, 0.57, -12.94, 136.02)"/><path class="cls-5" d="M77.58,94.41H22.75a1.14,1.14,0,1,1,0-2.27H77.58a1.14,1.14,0,0,1,0,2.27Z"/><path class="cls-5" d="M56,103.8H22.75a1.14,1.14,0,1,1,0-2.27H56a1.14,1.14,0,1,1,0,2.27Z"/><path class="cls-5" d="M40.61,113.19H22.75a1.14,1.14,0,1,1,0-2.27H40.61a1.14,1.14,0,0,1,0,2.27Z"/><path class="cls-5" d="M131.34,68.2h18a.92.92,0,1,0,0-1.83h-18a.92.92,0,0,0,0,1.83Z"/><path class="cls-5" d="M123.12,68.2h2.54a.92.92,0,0,0,0-1.83h-2.54a.92.92,0,0,0,0,1.83Z"/><circle class="cls-5" cx="16.97" cy="41.57" r="1.14"/></g></g></svg>